<svg width="234" height="200" viewBox="0 0 234 200" fill="none" xmlns="http://www.w3.org/2000/svg">
<g clip-path="url(#clip0_1202_8182)">
<mask id="mask0_1202_8182" style="mask-type:alpha" maskUnits="userSpaceOnUse" x="0" y="-11" width="226" height="211">
<path d="M226 -10.084H0V200H226V-10.084Z" fill="white"/>
</mask>
<g mask="url(#mask0_1202_8182)">
<g opacity="0.7">
<mask id="mask1_1202_8182" style="mask-type:alpha" maskUnits="userSpaceOnUse" x="-11" y="-8" width="90" height="33">
<path d="M78.9741 -7.56299H-10.9218V24.3698H78.9741V-7.56299Z" fill="white"/>
</mask>
<g mask="url(#mask1_1202_8182)">
<path fill-rule="evenodd" clip-rule="evenodd" d="M15.3378 29.094C19.2862 30.9452 24.1126 32.0336 29.324 32.0336C33.2696 32.0336 36.9946 31.4097 40.2849 30.3032C44.0849 31.3974 48.6271 32.0336 53.507 32.0336C66.8628 32.0336 77.6899 27.268 77.6899 21.3893C77.6899 15.5107 66.8628 10.7451 53.507 10.7451C53.0482 10.7451 52.5923 10.7507 52.1398 10.7618C48.8272 4.55177 39.8629 0.10083 29.324 0.10083C18.7697 0.10083 9.79453 4.5648 6.4936 10.7891C6.04814 10.76 5.59697 10.7451 5.14098 10.7451C-3.02095 10.7451 -9.63751 15.5107 -9.63751 21.3893C-9.63751 27.268 -3.02095 32.0336 5.14098 32.0336C9.09469 32.0336 12.6858 30.9154 15.3378 29.094H15.3378Z" fill="white"/>
</g>
</g>
<g opacity="0.5">
<path fill-rule="evenodd" clip-rule="evenodd" d="M70.6124 76.4706C70.6124 76.4706 69.6685 69.9786 76.963 70.3202C76.963 70.3202 77.8211 63.4012 85.8027 64.7681C85.8027 64.7681 87.0038 53.6637 98.847 54.6887C98.847 54.6887 106.914 55.2012 107.858 66.3911C107.858 66.3911 120.56 62.6326 120.131 76.4706H70.6124Z" fill="white"/>
</g>
<path fill-rule="evenodd" clip-rule="evenodd" d="M-1.68018 200.065H57.1302V109.309H-1.68018V200.065Z" fill="#F55564"/>
<path fill-rule="evenodd" clip-rule="evenodd" d="M-1.68018 110.429V101.466H57.1302V110.429H-1.68018ZM7.19687 174.295V116.031H13.8546V174.295H7.19687ZM17.1835 174.295V116.031H23.8413V174.295H17.1835ZM29.3895 174.295V116.031H36.0473V174.295H29.3895ZM39.3761 174.295V116.031H46.0339V174.295H39.3761Z" fill="#F55564"/>
<path fill-rule="evenodd" clip-rule="evenodd" d="M11.6355 101.466H44.9244V86.8998H11.6355V101.466Z" fill="#F55564"/>
<path fill-rule="evenodd" clip-rule="evenodd" d="M16.074 86.8998H41.5955V75.6953H16.074V86.8998Z" fill="#FD8585"/>
<path d="M110.059 127.796C110.987 127.796 111.74 127.044 111.74 126.115C111.74 125.187 110.987 124.435 110.059 124.435C109.131 124.435 108.379 125.187 108.379 126.115C108.379 127.044 109.131 127.796 110.059 127.796Z" fill="#213B73"/>
<path d="M110.9 126.956H109.219V201.746H110.9V126.956Z" fill="#213B73"/>
<path fill-rule="evenodd" clip-rule="evenodd" d="M115.565 129.5C113.42 130.006 111.803 129.486 110.9 129.032V139.874C112.286 140.674 114.506 140.798 117.975 139.943C122.211 138.898 126.862 141.242 126.862 141.242V129.812C121.805 127.88 118.795 128.741 115.565 129.5Z" fill="#005DAA"/>
<path d="M150.387 146.284C151.315 146.284 152.067 145.531 152.067 144.603C152.067 143.675 151.315 142.922 150.387 142.922C149.459 142.922 148.706 143.675 148.706 144.603C148.706 145.531 149.459 146.284 150.387 146.284Z" fill="#213B73"/>
<path d="M151.227 145.443H149.546V200.065H151.227V145.443Z" fill="#213B73"/>
<path fill-rule="evenodd" clip-rule="evenodd" d="M155.893 147.988C153.747 148.493 152.13 147.974 151.227 147.519V158.361C152.613 159.161 154.833 159.286 158.302 158.43C162.538 157.385 167.19 159.729 167.19 159.729V148.299C162.132 146.367 159.122 147.228 155.893 147.988Z" fill="#F8B954"/>
<path d="M137.784 129.477C138.712 129.477 139.465 128.724 139.465 127.796C139.465 126.868 138.712 126.115 137.784 126.115C136.856 126.115 136.104 126.868 136.104 127.796C136.104 128.724 136.856 129.477 137.784 129.477Z" fill="#213B73"/>
<path d="M138.624 128.636H136.944V200.065H138.624V128.636Z" fill="#213B73"/>
<path fill-rule="evenodd" clip-rule="evenodd" d="M143.29 131.181C141.144 131.686 139.528 131.167 138.625 130.712V141.554C140.011 142.354 142.231 142.479 145.7 141.623C149.936 140.578 154.587 142.922 154.587 142.922V131.492C149.53 129.56 146.52 130.421 143.29 131.181Z" fill="#8C4C9E"/>
<path d="M123.502 145.443C124.43 145.443 125.182 144.691 125.182 143.763C125.182 142.834 124.43 142.082 123.502 142.082C122.574 142.082 121.822 142.834 121.822 143.763C121.822 144.691 122.574 145.443 123.502 145.443Z" fill="#213B73"/>
<path d="M124.342 144.603H122.662V200.065H124.342V144.603Z" fill="#213B73"/>
<path fill-rule="evenodd" clip-rule="evenodd" d="M129.008 147.147C126.862 147.653 125.245 147.133 124.342 146.679V157.521C125.729 158.321 127.949 158.446 131.418 157.59C135.653 156.545 140.305 158.889 140.305 158.889V147.459C135.248 145.527 132.237 146.388 129.008 147.147Z" fill="#FFF200"/>
<path fill-rule="evenodd" clip-rule="evenodd" d="M118.041 191.662C83.5852 191.059 63.0558 197.781 56.4529 211.83H179.792C173.08 198.987 152.497 192.265 118.041 191.662Z" fill="#1B6651"/>
<path fill-rule="evenodd" clip-rule="evenodd" d="M57.9703 81.5776H100.818C101.746 81.5776 102.498 82.3301 102.498 83.2583V200.065H56.29V83.2583C56.29 82.3301 57.0423 81.5776 57.9703 81.5776Z" fill="#F8B954"/>
<path fill-rule="evenodd" clip-rule="evenodd" d="M70.7689 103.121H67.996C67.4855 103.121 67.072 102.602 67.072 101.961V94.2782C67.072 93.6369 67.4855 93.1187 67.996 93.1187H70.7689C71.2793 93.1187 71.6928 93.6369 71.6928 94.2782V101.961C71.6928 102.602 71.2793 103.121 70.7689 103.121ZM80.7806 103.121H78.0078C77.4973 103.121 77.0838 102.602 77.0838 101.961V94.2782C77.0838 93.6369 77.4973 93.1187 78.0078 93.1187H80.7806C81.2911 93.1187 81.7046 93.6369 81.7046 94.2782V101.961C81.7046 102.602 81.2911 103.121 80.7806 103.121ZM90.7924 103.121H88.0195C87.5091 103.121 87.0956 102.602 87.0956 101.961V94.2782C87.0956 93.6369 87.5091 93.1187 88.0195 93.1187H90.7924C91.3029 93.1187 91.7164 93.6369 91.7164 94.2782V101.961C91.7164 102.602 91.3029 103.121 90.7924 103.121ZM70.7689 117.739H67.996C67.4855 117.739 67.072 117.219 67.072 116.58V108.897C67.072 108.256 67.4855 107.737 67.996 107.737H70.7689C71.2793 107.737 71.6928 108.256 71.6928 108.897V116.58C71.6928 117.219 71.2793 117.739 70.7689 117.739ZM80.7806 117.739H78.0078C77.4973 117.739 77.0838 117.219 77.0838 116.58V108.897C77.0838 108.256 77.4973 107.737 78.0078 107.737H80.7806C81.2911 107.737 81.7046 108.256 81.7046 108.897V116.58C81.7046 117.219 81.2911 117.739 80.7806 117.739ZM90.7924 117.739H88.0195C87.5091 117.739 87.0956 117.219 87.0956 116.58V108.897C87.0956 108.256 87.5091 107.737 88.0195 107.737H90.7924C91.3029 107.737 91.7164 108.256 91.7164 108.897V116.58C91.7164 117.219 91.3029 117.739 90.7924 117.739ZM70.7689 132.358H67.996C67.4855 132.358 67.072 131.839 67.072 131.198V123.515C67.072 122.874 67.4855 122.356 67.996 122.356H70.7689C71.2793 122.356 71.6928 122.874 71.6928 123.515V131.198C71.6928 131.839 71.2793 132.358 70.7689 132.358ZM80.7806 132.358H78.0078C77.4973 132.358 77.0838 131.839 77.0838 131.198V123.515C77.0838 122.874 77.4973 122.356 78.0078 122.356H80.7806C81.2911 122.356 81.7046 122.874 81.7046 123.515V131.198C81.7046 131.839 81.2911 132.358 80.7806 132.358ZM90.7924 132.358H88.0195C87.5091 132.358 87.0956 131.839 87.0956 131.198V123.515C87.0956 122.874 87.5091 122.356 88.0195 122.356H90.7924C91.3029 122.356 91.7164 122.874 91.7164 123.515V131.198C91.7164 131.839 91.3029 132.358 90.7924 132.358ZM70.7689 147.746H67.996C67.4855 147.746 67.072 147.226 67.072 146.586V138.902C67.072 138.262 67.4855 137.744 67.996 137.744H70.7689C71.2793 137.744 71.6928 138.262 71.6928 138.902V146.586C71.6928 147.226 71.2793 147.746 70.7689 147.746ZM80.7806 147.746H78.0078C77.4973 147.746 77.0838 147.226 77.0838 146.586V138.902C77.0838 138.262 77.4973 137.744 78.0078 137.744H80.7806C81.2911 137.744 81.7046 138.262 81.7046 138.902V146.586C81.7046 147.226 81.2911 147.746 80.7806 147.746ZM90.7924 147.746H88.0195C87.5091 147.746 87.0956 147.226 87.0956 146.586V138.902C87.0956 138.262 87.5091 137.744 88.0195 137.744H90.7924C91.3029 137.744 91.7164 138.262 91.7164 138.902V146.586C91.7164 147.226 91.3029 147.746 90.7924 147.746ZM70.7689 162.365H67.996C67.4855 162.365 67.072 161.845 67.072 161.205V153.522C67.072 152.881 67.4855 152.362 67.996 152.362H70.7689C71.2793 152.362 71.6928 152.881 71.6928 153.522V161.205C71.6928 161.845 71.2793 162.365 70.7689 162.365ZM80.7806 162.365H78.0078C77.4973 162.365 77.0838 161.845 77.0838 161.205V153.522C77.0838 152.881 77.4973 152.362 78.0078 152.362H80.7806C81.2911 152.362 81.7046 152.881 81.7046 153.522V161.205C81.7046 161.845 81.2911 162.365 80.7806 162.365ZM90.7924 162.365H88.0195C87.5091 162.365 87.0956 161.845 87.0956 161.205V153.522C87.0956 152.881 87.5091 152.362 88.0195 152.362H90.7924C91.3029 152.362 91.7164 152.881 91.7164 153.522V161.205C91.7164 161.845 91.3029 162.365 90.7924 162.365ZM70.7689 176.983H67.996C67.4855 176.983 67.072 176.463 67.072 175.824V168.14C67.072 167.499 67.4855 166.981 67.996 166.981H70.7689C71.2793 166.981 71.6928 167.499 71.6928 168.14V175.824C71.6928 176.463 71.2793 176.983 70.7689 176.983ZM80.7806 176.983H78.0078C77.4973 176.983 77.0838 176.463 77.0838 175.824V168.14C77.0838 167.499 77.4973 166.981 78.0078 166.981H80.7806C81.2911 166.981 81.7046 167.499 81.7046 168.14V175.824C81.7046 176.463 81.2911 176.983 80.7806 176.983ZM90.7924 176.983H88.0195C87.5091 176.983 87.0956 176.463 87.0956 175.824V168.14C87.0956 167.499 87.5091 166.981 88.0195 166.981H90.7924C91.3029 166.981 91.7164 167.499 91.7164 168.14V175.824C91.7164 176.463 91.3029 176.983 90.7924 176.983ZM70.7689 192.371H67.996C67.4855 192.371 67.072 191.852 67.072 191.212V183.528C67.072 182.887 67.4855 182.369 67.996 182.369H70.7689C71.2793 182.369 71.6928 182.887 71.6928 183.528V191.212C71.6928 191.852 71.2793 192.371 70.7689 192.371ZM80.7806 192.371H78.0078C77.4973 192.371 77.0838 191.852 77.0838 191.212V183.528C77.0838 182.887 77.4973 182.369 78.0078 182.369H80.7806C81.2911 182.369 81.7046 182.887 81.7046 183.528V191.212C81.7046 191.852 81.2911 192.371 80.7806 192.371ZM90.7924 192.371H88.0195C87.5091 192.371 87.0956 191.852 87.0956 191.212V183.528C87.0956 182.887 87.5091 182.369 88.0195 182.369H90.7924C91.3029 182.369 91.7164 182.887 91.7164 183.528V191.212C91.7164 191.852 91.3029 192.371 90.7924 192.371Z" fill="#A66907"/>
<path fill-rule="evenodd" clip-rule="evenodd" d="M171.244 199.95C167.317 199.95 164.122 196.755 164.122 192.826C164.122 188.898 167.317 185.704 171.244 185.704C175.171 185.704 178.367 188.898 178.367 192.826C178.367 196.755 175.171 199.95 171.244 199.95ZM210.584 199.95C206.656 199.95 203.462 196.755 203.462 192.826C203.462 188.898 206.656 185.704 210.584 185.704C214.51 185.704 217.707 188.898 217.707 192.826C217.707 196.755 214.51 199.95 210.584 199.95Z" fill="#213B73"/>
<path fill-rule="evenodd" clip-rule="evenodd" d="M171.244 189.32C173.178 189.32 174.75 190.894 174.75 192.826C174.75 194.759 173.178 196.333 171.244 196.333C169.311 196.333 167.74 194.759 167.74 192.826C167.74 190.894 169.311 189.32 171.244 189.32ZM210.583 189.32C212.516 189.32 214.09 190.894 214.09 192.826C214.09 194.759 212.516 196.333 210.583 196.333C208.651 196.333 207.078 194.759 207.078 192.826C207.078 190.894 208.651 189.32 210.583 189.32Z" fill="white"/>
<path fill-rule="evenodd" clip-rule="evenodd" d="M193.238 178.403H200.471C199.228 177.239 196.904 174.893 193.25 173.722C193.243 172.171 193.234 170.834 193.234 170.834C197.435 171.429 201.241 174.79 204.549 177.085C206.011 178.1 207.181 178.799 208.741 178.984L217.258 179.996C219.23 180.229 221.068 181.143 222.53 182.765C223.395 183.727 224.008 185.761 224.35 186.964C225.599 186.964 226.61 187.975 226.61 189.225V190.956C226.61 192.205 225.599 193.217 224.35 193.217H221.054C220.464 193.217 219.974 192.767 219.927 192.179C219.524 187.212 214.843 183.442 210.583 183.442C206.328 183.442 201.642 187.209 201.241 192.179C201.194 192.766 200.703 193.217 200.115 193.217H181.715C181.124 193.217 180.635 192.767 180.587 192.179C180.185 187.212 175.504 183.442 171.244 183.442C166.988 183.442 162.303 187.209 161.902 192.179C161.855 192.766 161.364 193.217 160.775 193.217H156.848C155.6 193.217 154.587 192.205 154.587 190.956V189.225C154.587 187.975 155.6 186.964 156.848 186.964L158.285 180.206C158.507 179.162 159.429 178.417 160.496 178.417H164.497C165.701 178.417 193.182 178.417 193.234 178.417C193.235 178.417 193.237 178.412 193.238 178.403Z" fill="#8C4C9E"/>
<path fill-rule="evenodd" clip-rule="evenodd" d="M175.59 41.8357L175 41.9276C174.875 41.9468 174.756 41.8598 174.737 41.7338L174.62 40.9725C174.601 40.8469 174.687 40.7274 174.812 40.7081L175.403 40.6163C175.528 40.597 175.646 40.6844 175.666 40.81L175.783 41.5714C175.802 41.6969 175.715 41.8165 175.59 41.8357ZM173.563 42.1506L172.973 42.2425C172.848 42.2617 172.729 42.1743 172.71 42.0487L172.593 41.2874C172.573 41.1614 172.66 41.0423 172.785 41.023L173.376 40.9311C173.501 40.9119 173.619 40.9993 173.638 41.1249L173.756 41.8863C173.775 42.0118 173.688 42.1313 173.563 42.1506ZM171.536 42.4655L170.945 42.5574C170.82 42.5766 170.702 42.4892 170.682 42.3636L170.565 41.6018C170.546 41.4763 170.633 41.3572 170.758 41.3379L171.348 41.246C171.473 41.2268 171.592 41.3138 171.611 41.4398L171.728 42.2011C171.747 42.3267 171.66 42.4458 171.536 42.4655ZM169.508 42.7804L168.918 42.8718C168.793 42.8915 168.674 42.8041 168.655 42.6785L168.538 41.9167C168.519 41.7912 168.606 41.672 168.731 41.6524L169.321 41.5609C169.446 41.5417 169.564 41.6287 169.584 41.7543L169.701 42.516C169.72 42.6416 169.633 42.7611 169.508 42.7804ZM167.479 43.0957L166.888 43.1871C166.764 43.2064 166.645 43.1193 166.626 42.9938L166.508 42.232C166.489 42.1065 166.576 41.9873 166.701 41.9677L167.291 41.8762C167.417 41.8566 167.535 41.944 167.554 42.0696L167.671 42.8313C167.691 42.9569 167.604 43.076 167.479 43.0957ZM165.452 43.4106L164.861 43.502C164.736 43.5217 164.618 43.4342 164.598 43.3087L164.481 42.5469C164.462 42.4214 164.549 42.3022 164.673 42.2826L165.264 42.1911C165.389 42.1715 165.508 42.2589 165.527 42.3845L165.644 43.1462C165.664 43.2718 165.577 43.3909 165.452 43.4106ZM163.425 43.7251L162.834 43.8169C162.709 43.8362 162.591 43.7491 162.571 43.6236L162.454 42.8618C162.435 42.7363 162.522 42.6171 162.646 42.5975L163.237 42.5056C163.362 42.4864 163.481 42.5738 163.5 42.6994L163.617 43.4611C163.636 43.5867 163.549 43.7058 163.425 43.7251ZM161.397 44.0404L160.807 44.1318C160.682 44.1511 160.563 44.064 160.544 43.9385L160.427 43.1767C160.407 43.0512 160.494 42.9316 160.619 42.9124L161.21 42.8209C161.335 42.8012 161.453 42.8887 161.473 43.0142L161.59 43.776C161.609 43.9016 161.522 44.0207 161.397 44.0404ZM159.369 44.3548L158.779 44.4467C158.654 44.466 158.536 44.3789 158.517 44.253L158.399 43.4916C158.38 43.366 158.467 43.2469 158.592 43.2273L159.182 43.1354C159.307 43.1161 159.426 43.2036 159.445 43.3291L159.562 44.0909C159.582 44.2165 159.495 44.3356 159.369 44.3548ZM157.342 44.6697L156.752 44.7616C156.627 44.7809 156.508 44.6938 156.489 44.5683L156.372 43.8065C156.353 43.6809 156.44 43.5614 156.564 43.5421L157.155 43.4503C157.28 43.431 157.398 43.5185 157.418 43.644L157.535 44.4054C157.554 44.5314 157.467 44.6505 157.342 44.6697ZM155.313 44.985L154.722 45.0769C154.598 45.0962 154.479 45.0087 154.46 44.8831L154.343 44.1214C154.323 43.9958 154.41 43.8767 154.535 43.8574L155.126 43.7656C155.25 43.7463 155.369 43.8334 155.389 43.9589L155.506 44.7207C155.525 44.8462 155.438 44.9658 155.313 44.985ZM153.286 45.2999L152.695 45.3914C152.57 45.411 152.452 45.3236 152.432 45.198L152.316 44.4363C152.296 44.3107 152.383 44.1916 152.508 44.1723L153.099 44.0805C153.223 44.0612 153.342 44.1487 153.361 44.2742L153.479 45.0356C153.498 45.1611 153.411 45.2803 153.286 45.2999ZM151.258 45.6148L150.668 45.7063C150.543 45.7259 150.424 45.6385 150.405 45.5129L150.288 44.7516C150.269 44.6256 150.356 44.5065 150.481 44.4868L151.071 44.3954C151.196 44.3761 151.315 44.4632 151.334 44.5887L151.451 45.3505C151.47 45.476 151.384 45.5956 151.258 45.6148ZM149.231 45.9297L148.641 46.0216C148.516 46.0408 148.397 45.9534 148.378 45.8278L148.261 45.0661C148.242 44.9405 148.328 44.8214 148.453 44.8021L149.043 44.7103C149.169 44.691 149.287 44.7781 149.307 44.9036L149.424 45.6654C149.443 45.7909 149.356 45.9101 149.231 45.9297ZM147.24 46.239L146.65 46.3305C146.525 46.3497 146.406 46.2627 146.387 46.1371L146.27 45.3753C146.251 45.2498 146.338 45.1302 146.462 45.111L147.053 45.0195C147.178 44.9999 147.296 45.0873 147.316 45.2129L147.433 45.9746C147.452 46.1002 147.365 46.2193 147.24 46.239ZM185.141 43.2293L185.133 43.1783C185.021 42.4739 184.519 41.9051 183.846 41.6777C183.256 41.4787 182.782 41.1586 182.367 40.7811L179.215 41.2709C179.004 41.3034 178.804 41.1562 178.771 40.9436L178.702 40.4979C178.67 40.2853 178.816 40.0843 179.028 40.0515L181.363 39.6884C181.335 39.6555 181.308 39.6226 181.282 39.5893C180.681 38.8613 179.941 38.4617 179.273 38.2463C178.529 38.0049 177.736 37.9603 176.965 38.0803L173.249 38.6571L173.251 38.6691C173.137 38.6788 173.023 38.6924 172.91 38.71L166.312 39.7358C166.312 39.7358 159.31 34.7019 158.412 34.1503C157.514 33.5988 156.953 33.6136 156.953 33.6136H155.508L160.101 40.7013L147.009 42.7367C142.128 43.4948 139.298 37.7894 138.499 35.8977C138.352 35.5471 137.989 35.3441 137.614 35.4023L136.294 35.6052C135.844 35.6754 135.536 36.0986 135.605 36.5503L135.943 38.7478L135.94 38.7462L136.295 41.0427C136.294 41.0419 136.294 41.0419 136.293 41.0411L136.82 44.4684C136.932 45.1936 137.354 45.831 137.974 46.2157L141.312 48.2792L141.347 48.3004L142.101 48.7666H142.101L144.47 50.2307L145.142 50.6459C145.79 51.045 146.556 51.2019 147.308 51.0851L150.042 50.6607H150.043L152.216 50.3234L152.222 50.3218L159.551 49.1837L159.718 49.2656L154.296 57.9827H156.325C156.325 57.9827 156.738 58.0152 157.358 57.614C157.779 57.3413 166.593 51.1545 172.194 47.2202L177.448 46.4043H177.45L179.463 46.091C179.462 46.0914 179.461 46.0918 179.459 46.0922L183.514 45.4624C184.576 45.2975 185.305 44.2987 185.141 43.2293Z" fill="#F55564"/>
</g>
</g>
<defs>
<clipPath id="clip0_1202_8182">
<rect width="234" height="200" fill="white"/>
</clipPath>
</defs>
</svg>
