<svg width="234" height="200" viewBox="0 0 234 200" fill="none" xmlns="http://www.w3.org/2000/svg">
<g clip-path="url(#clip0_1202_8242)">
<mask id="mask0_1202_8242" style="mask-type:alpha" maskUnits="userSpaceOnUse" x="-5" y="-23" width="239" height="223">
<path d="M234 -22.2222H-4.43176V200H234V-22.2222Z" fill="white"/>
</mask>
<g mask="url(#mask0_1202_8242)">
<g opacity="0.5">
<mask id="mask1_1202_8242" style="mask-type:alpha" maskUnits="userSpaceOnUse" x="59" y="45" width="63" height="23">
<path d="M121.432 45.3334H59.3865V67.5556H121.432V45.3334Z" fill="white"/>
</mask>
<g mask="url(#mask1_1202_8242)">
<path fill-rule="evenodd" clip-rule="evenodd" d="M128.382 75.6941C128.382 75.6941 129.67 67.0857 119.719 67.5386C119.719 67.5386 118.548 58.3639 107.659 60.1765C107.659 60.1765 106.02 45.4517 89.8633 46.8109C89.8633 46.8109 78.8578 47.4905 77.5696 62.3286C77.5696 62.3286 60.242 57.3448 60.8272 75.6941H128.382Z" fill="white"/>
</g>
<path fill-rule="evenodd" clip-rule="evenodd" d="M165.815 35.5556C165.815 35.5556 164.279 24.9909 176.149 25.5467C176.149 25.5467 177.545 14.2871 190.533 16.5116C190.533 16.5116 192.487 -1.55928 211.759 0.108759C211.759 0.108759 224.886 0.94278 226.422 19.1527C226.422 19.1527 247.09 13.0364 246.392 35.5556H165.815Z" fill="white"/>
</g>
<path d="M252.17 179.556H55.3977C43.4043 179.556 33.6818 189.306 33.6818 201.333C33.6818 213.361 43.4043 223.111 55.3977 223.111H252.17C264.164 223.111 273.886 213.361 273.886 201.333C273.886 189.306 264.164 179.556 252.17 179.556Z" fill="#178667"/>
<path d="M66.4773 223.111C103.192 223.111 132.955 213.361 132.955 201.333C132.955 189.306 103.192 179.556 66.4773 179.556C29.7629 179.556 0 189.306 0 201.333C0 213.361 29.7629 223.111 66.4773 223.111Z" fill="#178667"/>
<path fill-rule="evenodd" clip-rule="evenodd" d="M220.692 59.5557L139.159 180.445H297.818L220.692 59.5557Z" fill="#939DB7"/>
<path opacity="0.310082" fill-rule="evenodd" clip-rule="evenodd" d="M220.692 59.5557L139.159 180.445H297.818L220.692 59.5557Z" fill="white"/>
<path fill-rule="evenodd" clip-rule="evenodd" d="M221.147 59.5557L193.227 100.349L226.466 95.4243L259.705 119.111L221.147 59.5557Z" fill="white"/>
<path fill-rule="evenodd" clip-rule="evenodd" d="M146.484 95.1112L121.432 180.445H170.182L146.484 95.1112Z" fill="#1B6651"/>
<path fill-rule="evenodd" clip-rule="evenodd" d="M172.521 109.333L151.568 180.445H192.341L172.521 109.333Z" fill="#178667"/>
<path fill-rule="evenodd" clip-rule="evenodd" d="M101.892 172.276C101.892 167.772 98.4116 164.108 94.1359 164.108C89.8588 164.108 86.3792 167.772 86.3792 172.276C86.3792 176.78 89.8588 180.445 94.1359 180.445C98.4116 180.445 101.892 176.78 101.892 172.276ZM144.168 172.276C144.168 167.772 140.689 164.108 136.411 164.108C132.135 164.108 128.656 167.772 128.656 172.276C128.656 176.78 132.135 180.445 136.411 180.445C140.689 180.445 144.168 176.78 144.168 172.276Z" fill="#213B73"/>
<path fill-rule="evenodd" clip-rule="evenodd" d="M79.6525 164.724C78.3022 164.724 77.2064 165.869 77.2064 167.281V169.24C77.2064 170.652 78.3022 171.796 79.6525 171.796H83.2875C83.2875 165.943 87.8416 161.184 93.4394 161.184C99.0368 161.184 103.59 165.943 103.591 171.796H125.851C125.851 165.943 130.404 161.184 136.001 161.184C141.6 161.184 146.154 165.943 146.154 171.796H150.895C152.247 171.796 153.341 170.652 153.341 169.24V167.281C153.341 165.869 152.247 164.724 150.895 164.724V156.131C150.895 155.425 150.348 154.852 149.673 154.852H123.337V146.167C123.337 145.462 122.789 144.889 122.114 144.889H108.349C107.311 144.889 106.324 145.349 105.631 146.155L98.3048 154.675C98.1044 154.907 97.8282 155.056 97.5306 155.09L80.7393 157.057C80.1206 157.13 79.6525 157.678 79.6525 158.329V164.724ZM119.387 155.166H103.259L108.346 148.98H119.387V155.166Z" fill="#D73645"/>
<path fill-rule="evenodd" clip-rule="evenodd" d="M135.803 168.913C133.721 168.913 132.026 170.638 132.026 172.757C132.026 174.875 133.721 176.601 135.803 176.601C137.886 176.601 139.582 174.875 139.582 172.757C139.582 170.638 137.886 168.913 135.803 168.913ZM93.827 168.913C91.7426 168.913 90.0484 170.638 90.0484 172.757C90.0484 174.875 91.7426 176.601 93.827 176.601C95.9092 176.601 97.6043 174.875 97.6043 172.757C97.6043 170.638 95.9092 168.913 93.827 168.913Z" fill="white"/>
<path fill-rule="evenodd" clip-rule="evenodd" d="M91.198 180.445C95.4969 180.445 98.9945 176.872 98.9945 172.48C98.9945 168.089 95.4969 164.517 91.198 164.517C86.8992 164.517 83.4007 168.089 83.4007 172.48C83.4007 176.872 86.8992 180.445 91.198 180.445ZM48.086 180.445C52.3847 180.445 55.8822 176.872 55.8822 172.48C55.8822 168.089 52.3847 164.517 48.086 164.517C43.7849 164.517 40.2884 168.089 40.2884 172.48C40.2884 176.872 43.7849 180.445 48.086 180.445Z" fill="#213B73"/>
<path fill-rule="evenodd" clip-rule="evenodd" d="M91.198 168.733C89.175 168.733 87.5284 170.415 87.5284 172.481C87.5284 174.546 89.175 176.228 91.198 176.228C93.2214 176.228 94.8667 174.546 94.8667 172.481C94.8667 170.415 93.2214 168.733 91.198 168.733ZM48.0863 168.733C46.0617 168.733 44.4161 170.415 44.4161 172.481C44.4161 174.546 46.0617 176.228 48.0863 176.228C50.1092 176.228 51.7544 174.546 51.7544 172.481C51.7544 170.415 50.1092 168.733 48.0863 168.733Z" fill="white"/>
<path fill-rule="evenodd" clip-rule="evenodd" d="M30.9882 165.894C29.6243 165.894 28.5194 167.011 28.5194 168.388V170.298C28.5194 171.675 29.6243 172.791 30.9882 172.791H37.9997C37.9997 167.085 42.5953 162.441 48.245 162.441C53.8939 162.441 58.4886 167.085 58.4886 172.791H80.9515C80.9515 167.085 85.5466 162.441 91.1955 162.441C96.8444 162.441 101.44 167.085 101.44 172.791H104.781C106.144 172.791 107.25 171.675 107.25 170.298V168.388C107.25 167.011 106.144 165.894 104.781 165.894C104.781 165.894 101.83 153.956 97.3572 149.508C94.0153 146.187 81.0976 145.363 73.0481 146.097C56.533 147.599 50.4785 156.062 43.6226 157.272C39.0162 158.086 32.9379 159.701 30.9882 165.894ZM79.7315 157.958V149.526C88.5581 149.577 93.8915 151.258 94.7917 152.166C95.9349 153.366 97.0715 155.53 98.0772 157.958H79.7315ZM75.1451 157.958H52.213C57.3523 154.724 62.8885 150.681 73.1106 149.678C73.7688 149.614 74.4512 149.566 75.1451 149.526V157.958Z" fill="#005DAA"/>
<path fill-rule="evenodd" clip-rule="evenodd" d="M121.394 8.01357C120.53 8.09039 119.87 8.19432 119.104 8.37959C117.535 8.76367 115.994 9.46858 114.637 10.4175C114.466 10.535 114.332 10.6389 114.341 10.6434C114.346 10.6479 114.452 10.6163 114.577 10.5711C114.937 10.4355 115.601 10.2322 116.072 10.1147C117.332 9.7939 118.449 9.65382 119.737 9.65382C120.586 9.65382 121.057 9.68545 121.823 9.79389C126.835 10.4943 131.109 13.7296 133.116 18.3477C133.32 18.8086 133.693 19.8795 133.781 20.25C133.809 20.3629 133.836 20.4488 133.841 20.4443C133.846 20.4398 133.896 20.2726 133.952 20.0828C134.353 18.6639 135.055 17.1728 135.899 15.9347C137.672 13.3455 140.321 11.3664 143.326 10.3858C144.876 9.87969 146.27 9.65827 147.927 9.65827C149.653 9.65827 151.158 9.91132 152.87 10.4987C153.124 10.5846 153.336 10.6524 153.341 10.6479C153.355 10.6298 152.653 10.1689 152.228 9.92035C150.705 9.02114 149.044 8.41111 147.415 8.15361C146.542 8.01354 145.273 7.96383 144.405 8.02708C141.447 8.2485 138.766 9.38722 136.541 11.3618C135.581 12.2159 134.584 13.4449 133.993 14.5069C133.924 14.6289 133.86 14.7328 133.846 14.7418C133.837 14.7463 133.735 14.6063 133.624 14.421C132.623 12.7491 131.197 11.2534 129.59 10.1916C127.841 9.03484 125.935 8.34344 123.78 8.0724C123.434 8.03174 121.712 7.99107 121.384 8.0227L121.394 8.01357Z" fill="#213B73"/>
<path fill-rule="evenodd" clip-rule="evenodd" d="M91.5969 26.6745C91.1261 26.7184 90.7661 26.7778 90.3482 26.8837C89.4923 27.1031 88.6515 27.5059 87.9114 28.0482C87.8182 28.1153 87.7452 28.1747 87.7502 28.1773C87.7528 28.1798 87.8107 28.1618 87.8786 28.136C88.075 28.0585 88.4375 27.9423 88.6943 27.8752C89.3815 27.6918 89.9907 27.6118 90.6931 27.6118C91.1564 27.6118 91.4131 27.6299 91.831 27.6918C94.565 28.0921 96.8961 29.9408 97.9912 32.5797C98.102 32.8431 98.3059 33.455 98.3537 33.6667C98.3688 33.7313 98.3839 33.7803 98.3864 33.7778C98.389 33.7752 98.4166 33.6796 98.4469 33.5712C98.6659 32.7604 99.0485 31.9083 99.5092 31.2009C100.476 29.7213 101.921 28.5904 103.56 28.03C104.406 27.7409 105.166 27.6143 106.07 27.6143C107.011 27.6143 107.832 27.7589 108.766 28.0946C108.904 28.1437 109.02 28.1824 109.023 28.1798C109.03 28.1695 108.648 27.9061 108.416 27.7641C107.585 27.2503 106.679 26.9017 105.79 26.7545C105.314 26.6745 104.622 26.6461 104.149 26.6822C102.535 26.8087 101.073 27.4594 99.8592 28.5878C99.3355 29.0758 98.7918 29.7781 98.4696 30.385C98.4318 30.4547 98.3966 30.5141 98.389 30.5192C98.384 30.5218 98.3286 30.4418 98.2682 30.3359C97.7219 29.3805 96.944 28.5258 96.0679 27.9191C95.1138 27.2581 94.074 26.863 92.8984 26.7081C92.7096 26.6849 91.7706 26.6616 91.5919 26.6797L91.5969 26.6745Z" fill="#213B73"/>
</g>
</g>
<defs>
<clipPath id="clip0_1202_8242">
<rect width="234" height="200" fill="white"/>
</clipPath>
</defs>
</svg>
